# xmcd
#
# Track frame offsets:
#	150
#	27159
#	57639
#	75292
#	97895
#	124911
#	147924
#	171327
#	191919
#	209529
#	233208
#	260075
#
# Disc length: 3837
#
# Revision: 1
# Processed by: cddbd v1.5.1PL0 Copyright (c) Steve Scherf et al.
# Submitted via: CDex 1.40Beta9
# Normalized: r0:TDELIM( - )
#
DISCID=ae0efb0c
DTITLE=Mtv Lounge - Volume 5
DYEAR=2003
DGENRE=Dance
TTITLE0=S.w. - Sweet Lullabies
TTITLE1=Max Melvin - Whatever
TTITLE2=Sweet Coffee - Don't Need You
TTITLE3=Sandy Castle - Speakless
TTITLE4=Water - Evolution
TTITLE5=Moby - Sunday (the Day Before My Birthday)
TTITLE6=Cabras Locas - Si Te Vas
TTITLE7=Alex Cortiz - No String Attached
TTITLE8=Rockchild - Starlight
TTITLE9=Compendium - Brandnew Start
TTITLE10=A Vida Azul - New Morning
TTITLE11=Jurr and Roelove feat. Wendy Lewis - Summertime
EXTD=YEAR: 2003 ID3G: 3
EXTT0=
EXTT1=
EXTT2=
EXTT3=
EXTT4=
EXTT5=
EXTT6=
EXTT7=
EXTT8=
EXTT9=
EXTT10=
EXTT11=
PLAYORDER=
